<?xml version="1.0" encoding="UTF-8" standalone="no"?>
<!DOCTYPE svg PUBLIC "-//W3C//DTD SVG 1.1//EN" "http://www.w3.org/Graphics/SVG/1.1/DTD/svg11.dtd">
<svg width="100%" height="100%" viewBox="0 0 3841 2161" version="1.1" xmlns="http://www.w3.org/2000/svg" xmlns:xlink="http://www.w3.org/1999/xlink" xml:space="preserve" xmlns:serif="http://www.serif.com/" style="fill-rule:evenodd;clip-rule:evenodd;stroke-linejoin:round;stroke-miterlimit:2;">
    <g transform="matrix(1,0,0,1,-4486,-1679)">
        <g id="Baltimore-Code-and-Coffee-Logo-horiz" serif:id="Baltimore Code and Coffee Logo horiz" transform="matrix(1,0,0,0.5625,4486.21,1679.77)">
            <rect x="0" y="0" width="3840" height="3840" style="fill:none;"/>
            <g transform="matrix(1,0,0,1.77778,-60,-1492.93)">
                <g transform="matrix(1,0,0,1,0,60)">
                    <path d="M1560,1020L1560,1080L1620,1080L1620,1260L1560,1260L1560,1320L1500,1320L1500,1380L1560,1380L1560,1320C1560,1320 1621.1,1319.88 1620,1320C1618.9,1320.12 1620,1260 1620,1260L1680,1260L1680,1080L1620,1080L1620,1020L1560,1020Z" style="fill:rgb(133,123,125);"/>
                    <path d="M1860,1020L1800,1020L1800,1080L1740,1080L1740,1200L1800,1200L1800,1260L1740,1260L1740,1320L1680,1320L1680,1380L1740,1380L1740,1320L1800,1320L1800,1260L1860,1260L1860,1200L1800,1200L1800,1080L1860,1080L1860,1020Z" style="fill:rgb(133,123,125);"/>
                    <path d="M1380,1020L1380,1140L1440,1140L1440,1200L1380,1200L1380,1320L1320,1320L1320,1380L1380,1380L1380,1320L1440,1320L1440,1200L1500,1200L1500,1140L1440,1140L1440,1020L1380,1020Z" style="fill:rgb(133,123,125);"/>
                </g>
                <path d="M1440,1680L1440,1740L1320,1740L1320,1860L1380,1860L1380,1920L1740,1920L1740,1860L1800,1860L1800,1800L1860,1800L1860,1740L1740,1740L1740,1680L1440,1680Z" style="fill:rgb(106,47,5);"/>
                <path d="M1380,1620L1380,1680L1320,1680L1320,1740L1260,1740L1260,1800L1320,1800L1320,1740L1440,1740L1440,1680L1740,1680L1740,1740L1800,1740L1800,1680L1740,1680L1740,1620L1380,1620Z" style="fill:rgb(114,103,94);"/>
                <path d="M1740,1920L1740,1860L1800,1860L1800,1800L1860,1800L1860,1740L1800,1740L1800,1680L1740,1680L1740,1620L1380,1620L1380,1680L1320,1680L1320,1740L1260,1740L1260,1800L1320,1800L1320,1860L1380,1860L1380,1920L1740,1920L1740,1980L1680,1980L1680,2040L1620,2040L1620,2100L1680,2100L1680,2160L1740,2160L1740,2580L1680,2580L1680,2640L1380,2640L1380,2580L1260,2580L1260,2520L1200,2520L1200,1680L1260,1680L1260,1620L1320,1620L1320,1560L1800,1560L1800,1620L1860,1620L1860,1680L1920,1680L1920,1800L1860,1800L1860,1860L1800,1860L1800,1920L1740,1920Z" style="fill:white;"/>
                <path d="M1800,1500L1800,1560L1860,1560L1860,1620L1920,1620L1920,1680L1980,1680L1980,1740L2040,1740L2040,1860L2100,1860L2100,1920L2160,1920L2160,1980L2220,1980L2220,2340L2160,2340L2160,2400L2100,2400L2100,2460L2040,2460L2040,2520L1980,2520L1980,2580L1920,2580L1920,2640L1860,2640L1860,2700L1740,2700L1740,2760L1380,2760L1380,2700L1260,2700L1260,2640L1200,2640L1200,2580L1140,2580L1140,1680L1200,1680L1200,1620L1260,1620L1260,1560L1320,1560L1320,1620L1260,1620L1260,1680L1200,1680L1200,2580L1260,2580L1260,2640L1380,2640L1380,2700L1740,2700L1740,2640L1860,2640L1860,2580L1920,2580L1920,2520L1980,2520L1980,2400L2100,2400L2100,2340L2160,2340L2160,1980L2100,1980L2100,1920L1980,1920L1980,1740L1920,1740L1920,1680L1860,1680L1860,1620L1800,1620L1800,1560L1320,1560L1320,1500" style="fill:rgb(36,23,115);"/>
                <path d="M1980,1920L1980,1980L2040,1980L2040,2040L2100,2040L2100,2220L2160,2220L2160,1980L2100,1980L2100,1920L1980,1920Z" style="fill:white;"/>
                <path d="M1980,1980L1980,2340L2040,2340L2040,2280L2100,2280L2100,2040L2040,2040L2040,1980L1980,1980Z" style="fill:rgb(98,96,101);"/>
                <path d="M1920,1740L1920,1800L1860,1800L1860,1860L1800,1860L1800,1920L1740,1920L1740,1980L1680,1980L1680,2040L1620,2040L1620,2100L1680,2100L1680,2160L1740,2160L1740,2580L1680,2580L1680,2640L1380,2640L1380,2580L1260,2580L1260,2520L1200,2520L1200,2580L1260,2580L1260,2640L1380,2640L1380,2700L1740,2700L1740,2640L1860,2640L1860,2580L1920,2580L1920,2520L1980,2520L1980,2400L2100,2400L2100,2340L2160,2340L2160,2220L2100,2220L2100,2280L2040,2280L2040,2340L1980,2340L1980,1740L1920,1740Z" style="fill:rgb(176,173,181);"/>
                <path d="M2340,2640L2340,2520L2400,2520L2400,2400L2460,2400L2460,2280L2520,2280L2520,2160L2580,2160L2580,2040L2640,2040L2640,1920L2700,1920L2700,1800L2760,1800L2760,1680L2820,1680L2820,1800L2760,1800L2760,1920L2700,1920L2700,2040L2640,2040L2640,2160L2580,2160L2580,2280L2520,2280L2520,2400L2460,2400L2460,2520L2400,2520L2400,2640L2340,2640Z" style="fill:rgb(36,23,115);"/>
                <path d="M2760,1620L2760,1740L2700,1740L2700,1860L2640,1860L2640,1980L2580,1980L2580,2100L2520,2100L2520,2220L2460,2220L2460,2340L2400,2340L2400,2460L2340,2460L2340,2520L2400,2520L2400,2400L2460,2400L2460,2280L2520,2280L2520,2160L2580,2160L2580,2040L2640,2040L2640,1920L2700,1920L2700,1800L2760,1800L2760,1680L2820,1680L2820,1620L2760,1620Z" style="fill:rgb(85,77,132);"/>
                <g transform="matrix(1,0,0,1,60,0)">
                    <path d="M2940,1800L2940,1860L3060,1860L3060,1920L3180,1920L3180,1980L3300,1980L3300,2040L3420,2040L3420,2100L3540,2100L3540,2160L3420,2160L3420,2220L3300,2220L3300,2280L3180,2280L3180,2340L3060,2340L3060,2400L2940,2400L2940,2460L3060,2460L3060,2400L3180,2400L3180,2340L3300,2340L3300,2280L3420,2280L3420,2220L3540,2220L3540,2160L3600,2160L3600,2100L3540,2100L3540,2040L3420,2040L3420,1980L3300,1980L3300,1920L3180,1920L3180,1860L3060,1860L3060,1800L2940,1800Z" style="fill:rgb(36,23,115);"/>
                    <path d="M3000,1860L3000,1920L3120,1920L3120,1980L3240,1980L3240,2040L3360,2040L3360,2100L3480,2100L3480,2160L3540,2160L3540,2100L3420,2100L3420,2040L3300,2040L3300,1980L3180,1980L3180,1920L3060,1920L3060,1860L3000,1860Z" style="fill:rgb(85,77,132);"/>
                    <path d="M3000,2340L3000,2400L3060,2400L3060,2340L3180,2340L3180,2280L3300,2280L3300,2220L3420,2220L3420,2160L3360,2160L3360,2220L3240,2220L3240,2280L3120,2280L3120,2340L3000,2340Z" style="fill:rgb(85,77,132);"/>
                </g>
                <g transform="matrix(-1,-3.19189e-16,3.19189e-16,-1,3900,4260)">
                    <path d="M2940,1800L2940,1860L3060,1860L3060,1920L3180,1920L3180,1980L3300,1980L3300,2040L3420,2040L3420,2100L3540,2100L3540,2160L3420,2160L3420,2220L3300,2220L3300,2280L3180,2280L3180,2340L3060,2340L3060,2400L2940,2400L2940,2460L3060,2460L3060,2400L3180,2400L3180,2340L3300,2340L3300,2280L3420,2280L3420,2220L3540,2220L3540,2160L3600,2160L3600,2100L3540,2100L3540,2040L3420,2040L3420,1980L3300,1980L3300,1920L3180,1920L3180,1860L3060,1860L3060,1800L2940,1800Z" style="fill:rgb(36,23,115);"/>
                    <path d="M3000,1860L3000,1920L3120,1920L3120,1980L3240,1980L3240,2040L3360,2040L3360,2100L3480,2100L3480,2160L3540,2160L3540,2100L3420,2100L3420,2040L3300,2040L3300,1980L3180,1980L3180,1920L3060,1920L3060,1860L3000,1860Z" style="fill:rgb(85,77,132);"/>
                    <path d="M3000,2340L3000,2400L3060,2400L3060,2340L3180,2340L3180,2280L3300,2280L3300,2220L3420,2220L3420,2160L3360,2160L3360,2220L3240,2220L3240,2280L3120,2280L3120,2340L3000,2340Z" style="fill:rgb(85,77,132);"/>
                </g>
            </g>
        </g>
    </g>
</svg>
